<svg aria-hidden="true" style="position:absolute;width:0;height:0;overflow:hidden" xmlns="http://www.w3.org/2000/svg">
  <defs>
    <symbol id="icon-burger" viewBox="0 0 47 32">
      <path stroke-linejoin="round" stroke-linecap="round" stroke-width="4.364" d="M1.96 29.154h42.965M1.96 15.615h42.965M1.96 2.077h42.965"/>
    </symbol>
    <symbol id="icon-cart" viewBox="0 0 32 32">
      <path d="M22.667 24A2.667 2.667 0 1 1 20 26.667 2.658 2.658 0 0 1 22.667 24zM1.333 2.667h4.36l1.253 2.667h19.72c.736 0 1.333.597 1.333 1.333 0 .227-.067.453-.16.667l-4.773 8.627a2.68 2.68 0 0 1-2.333 1.373H10.8l-1.2 2.173-.04.16c0 .184.149.333.333.333h15.44v2.667h-16A2.667 2.667 0 0 1 6.666 20c0-.467.12-.907.32-1.28l1.813-3.267-4.8-10.12H1.332V2.666zm8 21.333a2.667 2.667 0 1 1-2.667 2.667A2.658 2.658 0 0 1 9.333 24zm12-9.333L25.04 8H8.187l3.147 6.667h10z"/>
    </symbol>
    <symbol id="icon-close" viewBox="0 0 32 32">
      <path d="M3.2 32 0 28.8 12.8 16 0 3.2 3.2 0 16 12.8 28.8 0 32 3.2 19.2 16 32 28.8 28.8 32 16 19.2 3.2 32z"/>
    </symbol>
    <symbol id="icon-search" viewBox="0 0 32 32">
<path d="M31.008 27.231l-7.58-6.447c-0.784-0.705-1.622-1.029-2.299-0.998 1.789-2.096 2.87-4.815 2.87-7.787 0-6.627-5.373-12-12-12s-12 5.373-12 12 5.373 12 12 12c2.972 0 5.691-1.081 7.787-2.87-0.031 0.677 0.293 1.515 0.998 2.299l6.447 7.58c1.104 1.226 2.907 1.33 4.007 0.23s0.997-2.903-0.23-4.007zM12 20c-4.418 0-8-3.582-8-8s3.582-8 8-8 8 3.582 8 8-3.582 8-8 8z"></path>
</symbol>
  </defs>
</svg>
