<svg aria-hidden="true" style="position:absolute;width:0;height:0;overflow:hidden" xmlns="http://www.w3.org/2000/svg">
  <defs>
    <symbol id="icon-burger" viewBox="0 0 47 32">
      <path stroke-linejoin="round" stroke-linecap="round" stroke-width="4.364" d="M1.96 29.154h42.965M1.96 15.615h42.965M1.96 2.077h42.965"/>
    </symbol>
    <symbol id="icon-cart" viewBox="0 0 32 32">
      <path d="M22.667 24A2.667 2.667 0 1 1 20 26.667 2.658 2.658 0 0 1 22.667 24zM1.333 2.667h4.36l1.253 2.667h19.72c.736 0 1.333.597 1.333 1.333 0 .227-.067.453-.16.667l-4.773 8.627a2.68 2.68 0 0 1-2.333 1.373H10.8l-1.2 2.173-.04.16c0 .184.149.333.333.333h15.44v2.667h-16A2.667 2.667 0 0 1 6.666 20c0-.467.12-.907.32-1.28l1.813-3.267-4.8-10.12H1.332V2.666zm8 21.333a2.667 2.667 0 1 1-2.667 2.667A2.658 2.658 0 0 1 9.333 24zm12-9.333L25.04 8H8.187l3.147 6.667h10z"/>
    </symbol>
    <symbol id="icon-close" viewBox="0 0 32 32">
      <path d="M3.2 32 0 28.8 12.8 16 0 3.2 3.2 0 16 12.8 28.8 0 32 3.2 19.2 16 32 28.8 28.8 32 16 19.2 3.2 32z"/>
    </symbol>
    <symbol id="icon-search" viewBox="0 0 32 32">
      <path d="m31.008 27.231-7.58-6.447c-.784-.705-1.622-1.029-2.299-.998a11.954 11.954 0 0 0 2.87-7.787c0-6.627-5.373-12-12-12s-12 5.373-12 12 5.373 12 12 12c2.972 0 5.691-1.081 7.787-2.87-.031.677.293 1.515.998 2.299l6.447 7.58c1.104 1.226 2.907 1.33 4.007.23s.997-2.903-.23-4.007zM12 20a8 8 0 1 1 0-16 8 8 0 0 1 0 16z"/>
    </symbol>
    <symbol id="icon-user" viewBox="0 0 32 32">
      <path d="M18 22.082v-1.649c2.203-1.241 4-4.337 4-7.432 0-4.971 0-9-6-9s-6 4.029-6 9c0 3.096 1.797 6.191 4 7.432v1.649C7.216 22.637 2 25.97 2 30h28c0-4.03-5.216-7.364-12-7.918z"/>
    </symbol>
    <symbol id="icon-review" viewBox="0 0 24 24">
      <path d="M18 14.016V12h-5.484L10.5 14.016H18zm-12 0h2.484l6.891-6.891q.375-.375 0-.703l-1.781-1.781q-.375-.328-.703 0L6 11.532v2.484zm14.016-12q.797 0 1.383.586t.586 1.383v12q0 .797-.586 1.406T20.016 18H6l-3.984 3.984v-18q0-.797.586-1.383t1.383-.586h16.031z"/>
    </symbol>
    <symbol id="icon-back-arrow" viewBox="0 0 32 32">
      <path d="M23.808 32c3.554-6.439 4.153-16.26-9.808-15.932V24L2 12 14 0v7.762C30.718 7.326 32.58 22.519 23.808 32z"/>
    </symbol>
  </defs>
</svg>
