<svg aria-hidden="true" style="position:absolute;width:0;height:0;overflow:hidden" xmlns="http://www.w3.org/2000/svg">
  <defs>
    <symbol id="icon-burger" viewBox="0 0 47 32">
      <path stroke-linejoin="round" stroke-linecap="round" stroke-width="4.364" d="M1.96 29.154h42.965M1.96 15.615h42.965M1.96 2.077h42.965"/>
    </symbol>
    <symbol id="icon-cart" viewBox="0 0 32 32">
      <path d="M22.667 24A2.667 2.667 0 1 1 20 26.667 2.658 2.658 0 0 1 22.667 24zM1.333 2.667h4.36l1.253 2.667h19.72c.736 0 1.333.597 1.333 1.333 0 .227-.067.453-.16.667l-4.773 8.627a2.68 2.68 0 0 1-2.333 1.373H10.8l-1.2 2.173-.04.16c0 .184.149.333.333.333h15.44v2.667h-16A2.667 2.667 0 0 1 6.666 20c0-.467.12-.907.32-1.28l1.813-3.267-4.8-10.12H1.332V2.666zm8 21.333a2.667 2.667 0 1 1-2.667 2.667A2.658 2.658 0 0 1 9.333 24zm12-9.333L25.04 8H8.187l3.147 6.667h10z"/>
    </symbol>
    <symbol id="icon-close" viewBox="0 0 32 32">
      <path d="M3.2 32 0 28.8 12.8 16 0 3.2 3.2 0 16 12.8 28.8 0 32 3.2 19.2 16 32 28.8 28.8 32 16 19.2 3.2 32z"/>
    </symbol>
    <symbol id="icon-search" viewBox="0 0 32 32">
      <path d="m31.008 27.231-7.58-6.447c-.784-.705-1.622-1.029-2.299-.998a11.954 11.954 0 0 0 2.87-7.787c0-6.627-5.373-12-12-12s-12 5.373-12 12 5.373 12 12 12c2.972 0 5.691-1.081 7.787-2.87-.031.677.293 1.515.998 2.299l6.447 7.58c1.104 1.226 2.907 1.33 4.007.23s.997-2.903-.23-4.007zM12 20a8 8 0 1 1 0-16 8 8 0 0 1 0 16z"/>
    </symbol>
    <symbol id="icon-user" viewBox="0 0 32 32">
      <path d="M18 22.082v-1.649c2.203-1.241 4-4.337 4-7.432 0-4.971 0-9-6-9s-6 4.029-6 9c0 3.096 1.797 6.191 4 7.432v1.649C7.216 22.637 2 25.97 2 30h28c0-4.03-5.216-7.364-12-7.918z"/>
    </symbol>
    <symbol id="icon-review" viewBox="0 0 24 24">
      <path d="M18 14.016V12h-5.484L10.5 14.016H18zm-12 0h2.484l6.891-6.891q.375-.375 0-.703l-1.781-1.781q-.375-.328-.703 0L6 11.532v2.484zm14.016-12q.797 0 1.383.586t.586 1.383v12q0 .797-.586 1.406T20.016 18H6l-3.984 3.984v-18q0-.797.586-1.383t1.383-.586h16.031z"/>
    </symbol>
    <symbol id="icon-back-arrow" viewBox="0 0 32 32">
      <path d="M23.808 32c3.554-6.439 4.153-16.26-9.808-15.932V24L2 12 14 0v7.762C30.718 7.326 32.58 22.519 23.808 32z"/>
    </symbol>
    <symbol id="icon-postBox" viewBox="0 0 32 32">
<path d="M20.52 18.72c0-0.909-0.361-1.78-1.004-2.423s-1.514-1.004-2.423-1.004c-0.676 0.001-1.336 0.203-1.898 0.579s-0.999 0.911-1.257 1.535-0.325 1.312-0.193 1.975c0.132 0.663 0.458 1.272 0.936 1.749s1.087 0.803 1.749 0.936c0.663 0.132 1.35 0.065 1.975-0.193s1.159-0.695 1.535-1.257c0.376-0.561 0.578-1.222 0.579-1.897zM22.8 18.72c-0.001 1.272-0.427 2.507-1.21 3.508s-1.88 1.712-3.114 2.019-2.536 0.192-3.697-0.327c-1.161-0.518-2.116-1.41-2.712-2.534-0.592 1.117-1.538 2.005-2.69 2.526s-2.444 0.643-3.674 0.348c-1.229-0.295-2.326-0.99-3.117-1.976s-1.232-2.207-1.253-3.471v-9.48c0-0.587 0.52-1.093 1.147-1.093s1.12 0.507 1.133 1.093v4.827c0.96-0.72 2.147-1.147 3.427-1.147 2.173 0 4.067 1.227 5.027 3.027 0.485-0.913 1.208-1.677 2.094-2.21s1.899-0.816 2.933-0.817c3.147 0 5.707 2.56 5.707 5.707zM10.453 18.72c0-1.893-1.533-3.427-3.413-3.427-0.909 0-1.78 0.361-2.423 1.004s-1.004 1.514-1.004 2.423c0 0.907 0.36 1.777 1.002 2.418s1.511 1.002 2.418 1.002c0.907 0 1.777-0.36 2.418-1.002s1.002-1.511 1.002-2.418zM30.453 22.613c0.147 0.213 0.213 0.453 0.213 0.68 0 0.347-0.16 0.707-0.453 0.907-0.198 0.144-0.435 0.223-0.68 0.227-0.333 0-0.667-0.147-0.867-0.427l-2.547-3.373-2.52 3.373c-0.227 0.28-0.56 0.427-0.893 0.427-0.24 0-0.48-0.080-0.707-0.227-0.28-0.2-0.44-0.573-0.44-0.92 0-0.227 0.080-0.467 0.213-0.667l2.893-3.893-2.893-3.907c-0.142-0.193-0.216-0.427-0.213-0.667 0-0.347 0.16-0.68 0.44-0.907 0.52-0.373 1.213-0.28 1.6 0.213l2.52 3.36 2.547-3.36c0.347-0.493 1.053-0.587 1.547-0.213 0.307 0.227 0.453 0.573 0.453 0.933 0 0.227-0.067 0.453-0.213 0.64l-2.907 3.907 2.907 3.893z"></path>
</symbol>
<symbol id="icon-selfPickup" viewBox="0 0 32 32">
<path d="M26.667 17.333c0.8 0 1.467 0.267 2 0.8 0.4 0.533 0.667 1.2 0.667 1.867l-10.667 4-9.333-2.667v-12h2.533l9.733 3.6c0.667 0.267 1.067 0.8 1.067 1.467 0 0.4-0.133 0.8-0.4 1.067s-0.8 0.533-1.2 0.533h-3.733l-2.4-0.933-0.4 1.2 2.8 1.067h9.333zM1.333 9.333h5.333v14.667h-5.333v-14.667z"></path>
</symbol>
<symbol id="icon-courier" viewBox="0 0 32 32">
<path d="M4 18l-1-2h7l-0.8-2h-6.533l-1-2h10.4l-0.8-2h-9.787l-1.147-2h5c0-0.707 0.281-1.386 0.781-1.886s1.178-0.781 1.886-0.781h16v5.333h4l4 5.333v6.667h-2.667c0 1.061-0.421 2.078-1.172 2.828s-1.768 1.172-2.828 1.172c-1.061 0-2.078-0.421-2.828-1.172s-1.172-1.768-1.172-2.828h-5.333c0 1.061-0.421 2.078-1.172 2.828s-1.768 1.172-2.828 1.172c-1.061 0-2.078-0.421-2.828-1.172s-1.172-1.768-1.172-2.828h-2.667v-4.667h-1.333zM25.333 24.667c0.53 0 1.039-0.211 1.414-0.586s0.586-0.884 0.586-1.414c0-0.53-0.211-1.039-0.586-1.414s-0.884-0.586-1.414-0.586c-0.53 0-1.039 0.211-1.414 0.586s-0.586 0.884-0.586 1.414c0 0.53 0.211 1.039 0.586 1.414s0.884 0.586 1.414 0.586zM27.333 12.667h-3.333v3.333h5.947l-2.613-3.333zM12 24.667c0.53 0 1.039-0.211 1.414-0.586s0.586-0.884 0.586-1.414-0.211-1.039-0.586-1.414c-0.375-0.375-0.884-0.586-1.414-0.586s-1.039 0.211-1.414 0.586c-0.375 0.375-0.586 0.884-0.586 1.414s0.211 1.039 0.586 1.414c0.375 0.375 0.884 0.586 1.414 0.586z"></path>
</symbol>
  </defs>
</svg>
